#!OML:ASF E:\Style4\Style4.ASF
:FULLY-SPECIFIED
:DEGREES
2747
root 1.12507 17.4089 -1.26747 6.0553 -15.5326 4.40156
lowerback 16.7751 3.15476 -0.714319
upperback 9.67332 3.90251 -1.50451
thorax 0.989355 1.93004 -1.7793
lowerneck 5.73751 -5.01847 -3.64185
upperneck 0.780104 -6.85837 3.21159
head -0.474946 -3.46262 1.74412
rclavicle 2.34566e-014 -5.1684e-015
rhumerus 26.0586 6.55468 -80.1792
rradius 122.755
rwrist 14.9912
rhand 25.9817 -6.85838
rfingers 7.12502
rthumb 50.0609 -28.0491
lclavicle 2.34566e-014 -5.1684e-015
lhumerus 38.7015 -18.35 68.8495
lradius 123.376
lwrist -14.4438
lhand 21.3314 43.2467
lfingers 7.12502
lthumb 45.7733 66.435
rfemur -32.9302 1.92872 10.5857
rtibia 43.4937
rfoot -16.1199 -11.6727
rtoes -15.0562
lfemur -27.3751 12.1987 -28.7175
ltibia 41.3789
lfoot -24.9652 13.8044
ltoes -3.88904
2748
root 1.11781 17.3898 -1.26964 5.88686 -15.5586 4.46519
lowerback 16.784 2.98642 -1.11172
upperback 9.82239 3.63082 -1.29358
thorax 1.09812 1.77068 -1.29044
lowerneck 6.01555 -4.71215 -4.39216
upperneck 0.497498 -6.50647 3.27401
head -0.599645 -3.28997 1.90553
rclavicle 5.28767e-014 -2.70347e-014
rhumerus 26.4553 7.34761 -79.9274
rradius 122.236
rwrist 15.4402
rhand 26.1954 -6.42687
rfingers 7.12502
rthumb 50.2563 -27.514
lclavicle 5.28767e-014 -2.70347e-014
lhumerus 38.2968 -17.7618 68.9648
lradius 123.427
lwrist -14.6608
lhand 21.7983 43.3341
lfingers 7.12502
lthumb 46.2065 66.3422
rfemur -33.0232 1.92758 10.5492
rtibia 43.9467
rfoot -16.3739 -11.5872
rtoes -14.7592
lfemur -27.4443 12.213 -28.7291
ltibia 41.8097
lfoot -25.1115 13.7673
ltoes -3.39736
2749
root 1.10917 17.3641 -1.27252 5.71367 -15.5487 4.45389
lowerback 16.89 2.91987 -1.27654
upperback 9.9753 3.5198 -1.1823
thorax 1.18905 1.70383 -1.06558
lowerneck 6.21731 -4.56694 -4.67284
upperneck 0.222349 -6.33828 3.27848
head -0.719902 -3.20622 1.96696
rclavicle 2.62396e-014 -6.36111e-015
rhumerus 26.682 7.71582 -79.7613
rradius 121.821
rwrist 15.8817
rhand 26.3154 -5.91866
rfingers 7.12502
rthumb 50.366 -26.9471
lclavicle 2.62396e-014 -6.36111e-015
lhumerus 38.0406 -17.5895 68.9785
lradius 123.574
lwrist -14.718
lhand 22.2265 43.4579
lfingers 7.12502
lthumb 46.6033 66.2969
rfemur -33.1239 1.91431 10.6282
rtibia 44.4613
rfoot -16.502 -11.6865
rtoes -15.4751
lfemur -27.5346 12.2431 -28.6521
ltibia 42.2952
lfoot -25.2182 13.8261
ltoes -4.01955
2750
root 1.09866 17.3349 -1.27186 5.48546 -15.4946 4.53353
lowerback 17.0072 2.92298 -1.42492
upperback 10.1588 3.50101 -1.15602
thorax 1.31616 1.68611 -0.952757
lowerneck 6.30579 -4.49804 -4.73949
upperneck 0.0856608 -6.25378 3.28616
head -0.780011 -3.16394 1.98609
rclavicle 2.0276e-014 -3.49861e-014
rhumerus 26.7605 7.817 -79.6657
rradius 121.655
rwrist 16.1214
rhand 26.7639 -5.86475
rfingers 7.12502
rthumb 50.7755 -26.6706
lclavicle 2.0276e-014 -3.49861e-014
lhumerus 37.845 -17.7121 68.958
lradius 123.818
lwrist -14.6032
lhand 22.528 43.6455
lfingers 7.12502
lthumb 46.8824 66.3633
rfemur -33.19 1.85675 10.6135
rtibia 45.0332
rfoot -16.6433 -11.8363
rtoes -16.4489
lfemur -27.5756 12.2281 -28.6513
ltibia 42.8141
lfoot -25.4226 13.8506
ltoes -4.6932
2751
root 1.0883 17.3056 -1.26774 5.19885 -15.454 4.68809
lowerback 17.1503 2.95258 -1.64699
upperback 10.3385 3.50544 -1.14233
thorax 1.42327 1.67669 -0.816982
lowerneck 6.39405 -4.41825 -4.85277
upperneck 0.0420568 -6.15838 3.33569
head -0.808715 -3.11728 2.02453
rclavicle 4.05521e-014 -4.17448e-014
rhumerus 26.7146 7.92695 -79.6054
rradius 121.68
rwrist 16.3643
rhand 27.702 -6.04026
rfingers 7.12502
rthumb 51.6295 -26.3634
lclavicle 4.05521e-014 -4.17448e-014
lhumerus 37.5383 -17.9003 68.9796
lradius 124.188
lwrist -14.3431
lhand 22.7266 43.8296
lfingers 7.12502
lthumb 47.0662 66.4667
rfemur -33.2345 1.83604 10.4898
rtibia 45.6608
rfoot -16.9149 -11.8652
rtoes -16.5732
lfemur -27.563 12.3272 -28.7757
ltibia 43.362
lfoot -25.5041 14.0438
ltoes -6.1487
